<?xml version="1.0" encoding="UTF-8" standalone="no"?>
<!DOCTYPE svg PUBLIC "-//W3C//DTD SVG 1.1//EN"
 "http://www.w3.org/Graphics/SVG/1.1/DTD/svg11.dtd">
<!-- Generated by graphviz version 14.1.2 (20260124.0452)
 -->
<!-- Title: dependency&#45;cruiser output Pages: 1 -->
<svg width="1004pt" height="490pt"
 viewBox="0.00 0.00 1004.00 490.00" xmlns="http://www.w3.org/2000/svg" xmlns:xlink="http://www.w3.org/1999/xlink">
<g id="graph0" class="graph" transform="scale(1 1) rotate(0) translate(4 486)">
<title>dependency&#45;cruiser output</title>
<polygon fill="white" stroke="none" points="-4,4 -4,-486 999.75,-486 999.75,4 -4,4"/>
<g id="clust1" class="cluster">
<title>cluster_src</title>
<path fill="#ffffff" stroke="black" stroke-width="2" d="M20,-8C20,-8 975.75,-8 975.75,-8 981.75,-8 987.75,-14 987.75,-20 987.75,-20 987.75,-462 987.75,-462 987.75,-468 981.75,-474 975.75,-474 975.75,-474 20,-474 20,-474 14,-474 8,-468 8,-462 8,-462 8,-20 8,-20 8,-14 14,-8 20,-8"/>
<text xml:space="preserve" text-anchor="middle" x="497.88" y="-461.45" font-family="Helvetica,sans-Serif" font-weight="bold" font-size="9.00">src</text>
</g>
<g id="clust2" class="cluster">
<title>cluster_src/main</title>
<path fill="#ffffff" stroke="black" stroke-width="2" d="M28,-16C28,-16 967.75,-16 967.75,-16 973.75,-16 979.75,-22 979.75,-28 979.75,-28 979.75,-436 979.75,-436 979.75,-442 973.75,-448 967.75,-448 967.75,-448 28,-448 28,-448 22,-448 16,-442 16,-436 16,-436 16,-28 16,-28 16,-22 22,-16 28,-16"/>
<text xml:space="preserve" text-anchor="middle" x="497.88" y="-435.45" font-family="Helvetica,sans-Serif" font-weight="bold" font-size="9.00">main</text>
</g>
<g id="clust3" class="cluster">
<title>cluster_src/main/adapters</title>
<path fill="#ffffff" stroke="black" stroke-width="2" d="M184.75,-48C184.75,-48 374.75,-48 374.75,-48 380.75,-48 386.75,-54 386.75,-60 386.75,-60 386.75,-250 386.75,-250 386.75,-256 380.75,-262 374.75,-262 374.75,-262 184.75,-262 184.75,-262 178.75,-262 172.75,-256 172.75,-250 172.75,-250 172.75,-60 172.75,-60 172.75,-54 178.75,-48 184.75,-48"/>
<text xml:space="preserve" text-anchor="middle" x="279.75" y="-249.45" font-family="Helvetica,sans-Serif" font-weight="bold" font-size="9.00">adapters</text>
</g>
<g id="clust4" class="cluster">
<title>cluster_src/main/adapters/inbound</title>
<path fill="#ffffff" stroke="black" stroke-width="2" d="M208.12,-150C208.12,-150 351.38,-150 351.38,-150 357.38,-150 363.38,-156 363.38,-162 363.38,-162 363.38,-224 363.38,-224 363.38,-230 357.38,-236 351.38,-236 351.38,-236 208.12,-236 208.12,-236 202.12,-236 196.12,-230 196.12,-224 196.12,-224 196.12,-162 196.12,-162 196.12,-156 202.12,-150 208.12,-150"/>
<text xml:space="preserve" text-anchor="middle" x="279.75" y="-223.45" font-family="Helvetica,sans-Serif" font-weight="bold" font-size="9.00">inbound</text>
</g>
<g id="clust5" class="cluster">
<title>cluster_src/main/adapters/inbound/http</title>
<path fill="#ffffff" stroke="black" stroke-width="2" d="M216.12,-158C216.12,-158 343.38,-158 343.38,-158 349.38,-158 355.38,-164 355.38,-170 355.38,-170 355.38,-198 355.38,-198 355.38,-204 349.38,-210 343.38,-210 343.38,-210 216.12,-210 216.12,-210 210.12,-210 204.12,-204 204.12,-198 204.12,-198 204.12,-170 204.12,-170 204.12,-164 210.12,-158 216.12,-158"/>
<text xml:space="preserve" text-anchor="middle" x="279.75" y="-197.45" font-family="Helvetica,sans-Serif" font-weight="bold" font-size="9.00">http</text>
</g>
<g id="clust6" class="cluster">
<title>cluster_src/main/adapters/outbound</title>
<path fill="#ffffff" stroke="black" stroke-width="2" d="M192.75,-56C192.75,-56 366.75,-56 366.75,-56 372.75,-56 378.75,-62 378.75,-68 378.75,-68 378.75,-130 378.75,-130 378.75,-136 372.75,-142 366.75,-142 366.75,-142 192.75,-142 192.75,-142 186.75,-142 180.75,-136 180.75,-130 180.75,-130 180.75,-68 180.75,-68 180.75,-62 186.75,-56 192.75,-56"/>
<text xml:space="preserve" text-anchor="middle" x="279.75" y="-129.45" font-family="Helvetica,sans-Serif" font-weight="bold" font-size="9.00">outbound</text>
</g>
<g id="clust7" class="cluster">
<title>cluster_src/main/adapters/outbound/http</title>
<path fill="#ffffff" stroke="black" stroke-width="2" d="M200.75,-64C200.75,-64 358.75,-64 358.75,-64 364.75,-64 370.75,-70 370.75,-76 370.75,-76 370.75,-104 370.75,-104 370.75,-110 364.75,-116 358.75,-116 358.75,-116 200.75,-116 200.75,-116 194.75,-116 188.75,-110 188.75,-104 188.75,-104 188.75,-76 188.75,-76 188.75,-70 194.75,-64 200.75,-64"/>
<text xml:space="preserve" text-anchor="middle" x="279.75" y="-103.45" font-family="Helvetica,sans-Serif" font-weight="bold" font-size="9.00">http</text>
</g>
<g id="clust8" class="cluster">
<title>cluster_src/main/application</title>
<path fill="#ffffff" stroke="black" stroke-width="2" d="M406.75,-242C406.75,-242 782.75,-242 782.75,-242 788.75,-242 794.75,-248 794.75,-254 794.75,-254 794.75,-410 794.75,-410 794.75,-416 788.75,-422 782.75,-422 782.75,-422 406.75,-422 406.75,-422 400.75,-422 394.75,-416 394.75,-410 394.75,-410 394.75,-254 394.75,-254 394.75,-248 400.75,-242 406.75,-242"/>
<text xml:space="preserve" text-anchor="middle" x="594.75" y="-409.45" font-family="Helvetica,sans-Serif" font-weight="bold" font-size="9.00">application</text>
</g>
<g id="clust9" class="cluster">
<title>cluster_src/main/application/ports</title>
<path fill="#ffffff" stroke="black" stroke-width="2" d="M623,-250C623,-250 774.75,-250 774.75,-250 780.75,-250 786.75,-256 786.75,-262 786.75,-262 786.75,-384 786.75,-384 786.75,-390 780.75,-396 774.75,-396 774.75,-396 623,-396 623,-396 617,-396 611,-390 611,-384 611,-384 611,-262 611,-262 611,-256 617,-250 623,-250"/>
<text xml:space="preserve" text-anchor="middle" x="698.88" y="-383.45" font-family="Helvetica,sans-Serif" font-weight="bold" font-size="9.00">ports</text>
</g>
<g id="clust10" class="cluster">
<title>cluster_src/main/application/ports/outbound</title>
<path fill="#ffffff" stroke="black" stroke-width="2" d="M631,-258C631,-258 766.75,-258 766.75,-258 772.75,-258 778.75,-264 778.75,-270 778.75,-270 778.75,-332 778.75,-332 778.75,-338 772.75,-344 766.75,-344 766.75,-344 631,-344 631,-344 625,-344 619,-338 619,-332 619,-332 619,-270 619,-270 619,-264 625,-258 631,-258"/>
<text xml:space="preserve" text-anchor="middle" x="698.88" y="-331.45" font-family="Helvetica,sans-Serif" font-weight="bold" font-size="9.00">outbound</text>
</g>
<g id="clust11" class="cluster">
<title>cluster_src/main/application/ports/outbound/chat</title>
<path fill="#ffffff" stroke="black" stroke-width="2" d="M639,-266C639,-266 758.75,-266 758.75,-266 764.75,-266 770.75,-272 770.75,-278 770.75,-278 770.75,-306 770.75,-306 770.75,-312 764.75,-318 758.75,-318 758.75,-318 639,-318 639,-318 633,-318 627,-312 627,-306 627,-306 627,-278 627,-278 627,-272 633,-266 639,-266"/>
<text xml:space="preserve" text-anchor="middle" x="698.88" y="-305.45" font-family="Helvetica,sans-Serif" font-weight="bold" font-size="9.00">chat</text>
</g>
<g id="clust12" class="cluster">
<title>cluster_src/main/application/use&#45;cases</title>
<path fill="#ffffff" stroke="black" stroke-width="2" d="M414.75,-250C414.75,-250 591,-250 591,-250 597,-250 603,-256 603,-262 603,-262 603,-354 603,-354 603,-360 597,-366 591,-366 591,-366 414.75,-366 414.75,-366 408.75,-366 402.75,-360 402.75,-354 402.75,-354 402.75,-262 402.75,-262 402.75,-256 408.75,-250 414.75,-250"/>
<text xml:space="preserve" text-anchor="middle" x="502.88" y="-353.45" font-family="Helvetica,sans-Serif" font-weight="bold" font-size="9.00">use&#45;cases</text>
</g>
<g id="clust13" class="cluster">
<title>cluster_src/main/application/use&#45;cases/chat&#45;completions</title>
<path fill="#ffffff" stroke="black" stroke-width="2" d="M422.75,-258C422.75,-258 583,-258 583,-258 589,-258 595,-264 595,-270 595,-270 595,-328 595,-328 595,-334 589,-340 583,-340 583,-340 422.75,-340 422.75,-340 416.75,-340 410.75,-334 410.75,-328 410.75,-328 410.75,-270 410.75,-270 410.75,-264 416.75,-258 422.75,-258"/>
<text xml:space="preserve" text-anchor="middle" x="502.88" y="-327.45" font-family="Helvetica,sans-Serif" font-weight="bold" font-size="9.00">chat&#45;completions</text>
</g>
<g id="clust14" class="cluster">
<title>cluster_src/main/infrastructure</title>
<path fill="#ffffff" stroke="black" stroke-width="2" d="M458.25,-24C458.25,-24 959.75,-24 959.75,-24 965.75,-24 971.75,-30 971.75,-36 971.75,-36 971.75,-222 971.75,-222 971.75,-228 965.75,-234 959.75,-234 959.75,-234 458.25,-234 458.25,-234 452.25,-234 446.25,-228 446.25,-222 446.25,-222 446.25,-36 446.25,-36 446.25,-30 452.25,-24 458.25,-24"/>
<text xml:space="preserve" text-anchor="middle" x="709" y="-221.45" font-family="Helvetica,sans-Serif" font-weight="bold" font-size="9.00">infrastructure</text>
</g>
<g id="clust15" class="cluster">
<title>cluster_src/main/infrastructure/config</title>
<path fill="#ffffff" stroke="black" stroke-width="2" d="M466.25,-32C466.25,-32 951.75,-32 951.75,-32 957.75,-32 963.75,-38 963.75,-44 963.75,-44 963.75,-196 963.75,-196 963.75,-202 957.75,-208 951.75,-208 951.75,-208 466.25,-208 466.25,-208 460.25,-208 454.25,-202 454.25,-196 454.25,-196 454.25,-44 454.25,-44 454.25,-38 460.25,-32 466.25,-32"/>
<text xml:space="preserve" text-anchor="middle" x="709" y="-195.45" font-family="Helvetica,sans-Serif" font-weight="bold" font-size="9.00">config</text>
</g>
<g id="clust16" class="cluster">
<title>cluster_src/main/infrastructure/config/settings</title>
<path fill="#ffffff" stroke="black" stroke-width="2" d="M637.88,-40C637.88,-40 943.75,-40 943.75,-40 949.75,-40 955.75,-46 955.75,-52 955.75,-52 955.75,-170 955.75,-170 955.75,-176 949.75,-182 943.75,-182 943.75,-182 637.88,-182 637.88,-182 631.88,-182 625.88,-176 625.88,-170 625.88,-170 625.88,-52 625.88,-52 625.88,-46 631.88,-40 637.88,-40"/>
<text xml:space="preserve" text-anchor="middle" x="790.81" y="-169.45" font-family="Helvetica,sans-Serif" font-weight="bold" font-size="9.00">settings</text>
</g>
<!-- src/main/adapters/inbound/http/chat&#45;completions.controller.ts -->
<g id="node1" class="node">
<title>src/main/adapters/inbound/http/chat&#45;completions.controller.ts</title>
<g id="a_node1"><a xlink:href="src/main/adapters/inbound/http/chat-completions.controller.ts" xlink:title="chat&#45;completions.controller.ts">
<path fill="#ddfeff" stroke="black" d="M341.46,-183.88C341.46,-183.88 218.04,-183.88 218.04,-183.88 215.08,-183.88 212.12,-180.92 212.12,-177.96 212.12,-177.96 212.12,-172.04 212.12,-172.04 212.12,-169.08 215.08,-166.12 218.04,-166.12 218.04,-166.12 341.46,-166.12 341.46,-166.12 344.42,-166.12 347.38,-169.08 347.38,-172.04 347.38,-172.04 347.38,-177.96 347.38,-177.96 347.38,-180.92 344.42,-183.88 341.46,-183.88"/>
<text xml:space="preserve" text-anchor="start" x="220.12" y="-171.32" font-family="Helvetica,sans-Serif" font-size="9.00">chat&#45;completions.controller.ts</text>
</a>
</g>
</g>
<!-- src/main/application/use&#45;cases/chat&#45;completions/stream&#45;chat&#45;completions.use&#45;case.ts -->
<g id="node2" class="node">
<title>src/main/application/use&#45;cases/chat&#45;completions/stream&#45;chat&#45;completions.use&#45;case.ts</title>
<g id="a_node2"><a xlink:href="src/main/application/use-cases/chat-completions/stream-chat-completions.use-case.ts" xlink:title="stream&#45;chat&#45;completions.use&#45;case.ts">
<path fill="#ddfeff" stroke="black" d="M579.58,-283.88C579.58,-283.88 426.17,-283.88 426.17,-283.88 423.21,-283.88 420.25,-280.92 420.25,-277.96 420.25,-277.96 420.25,-272.04 420.25,-272.04 420.25,-269.08 423.21,-266.12 426.17,-266.12 426.17,-266.12 579.58,-266.12 579.58,-266.12 582.54,-266.12 585.5,-269.08 585.5,-272.04 585.5,-272.04 585.5,-277.96 585.5,-277.96 585.5,-280.92 582.54,-283.88 579.58,-283.88"/>
<text xml:space="preserve" text-anchor="start" x="428.25" y="-271.32" font-family="Helvetica,sans-Serif" font-size="9.00">stream&#45;chat&#45;completions.use&#45;case.ts</text>
</a>
</g>
</g>
<!-- src/main/adapters/inbound/http/chat&#45;completions.controller.ts&#45;&gt;src/main/application/use&#45;cases/chat&#45;completions/stream&#45;chat&#45;completions.use&#45;case.ts -->
<g id="edge1" class="edge">
<title>src/main/adapters/inbound/http/chat&#45;completions.controller.ts&#45;&gt;src/main/application/use&#45;cases/chat&#45;completions/stream&#45;chat&#45;completions.use&#45;case.ts</title>
<path fill="none" stroke="#000000" stroke-width="2" stroke-opacity="0.200000" d="M347.73,-172.07C361.81,-174.35 375.71,-179.09 386.75,-188 395.17,-194.8 387.92,-202.61 394.75,-211 414.09,-234.74 444.72,-251.78 468.29,-262.27"/>
<polygon fill="#000000" fill-opacity="0.200000" stroke="#000000" stroke-width="2" stroke-opacity="0.200000" points="467.18,-264.08 473.52,-264.52 468.84,-260.22 467.18,-264.08"/>
</g>
<!-- src/main/infrastructure/config/service.config.ts -->
<g id="node3" class="node">
<title>src/main/infrastructure/config/service.config.ts</title>
<g id="a_node3"><a xlink:href="src/main/infrastructure/config/service.config.ts" xlink:title="service.config.ts">
<path fill="#ddfeff" stroke="black" d="M537.58,-77.88C537.58,-77.88 468.17,-77.88 468.17,-77.88 465.21,-77.88 462.25,-74.92 462.25,-71.96 462.25,-71.96 462.25,-66.04 462.25,-66.04 462.25,-63.08 465.21,-60.12 468.17,-60.12 468.17,-60.12 537.58,-60.12 537.58,-60.12 540.54,-60.12 543.5,-63.08 543.5,-66.04 543.5,-66.04 543.5,-71.96 543.5,-71.96 543.5,-74.92 540.54,-77.88 537.58,-77.88"/>
<text xml:space="preserve" text-anchor="start" x="470.25" y="-65.33" font-family="Helvetica,sans-Serif" font-size="9.00">service.config.ts</text>
</a>
</g>
</g>
<!-- src/main/adapters/inbound/http/chat&#45;completions.controller.ts&#45;&gt;src/main/infrastructure/config/service.config.ts -->
<g id="edge2" class="edge">
<title>src/main/adapters/inbound/http/chat&#45;completions.controller.ts&#45;&gt;src/main/infrastructure/config/service.config.ts</title>
<path fill="none" stroke="#000000" stroke-width="2" stroke-opacity="0.200000" d="M314.21,-165.67C338.01,-157.31 368.83,-142.63 386.75,-119 396.92,-105.59 382.32,-93.34 394.75,-82 410.25,-67.87 432.67,-63.61 453,-63.29"/>
<polygon fill="#000000" fill-opacity="0.200000" stroke="#000000" stroke-width="2" stroke-opacity="0.200000" points="452.81,-65.39 458.84,-63.36 452.86,-61.19 452.81,-65.39"/>
</g>
<!-- src/main/application/ports/tokens.ts -->
<g id="node6" class="node">
<title>src/main/application/ports/tokens.ts</title>
<g id="a_node6"><a xlink:href="src/main/application/ports/tokens.ts" xlink:title="tokens.ts">
<path fill="#ddfeff" stroke="black" d="M719.96,-369.88C719.96,-369.88 677.79,-369.88 677.79,-369.88 674.83,-369.88 671.88,-366.92 671.88,-363.96 671.88,-363.96 671.88,-358.04 671.88,-358.04 671.88,-355.08 674.83,-352.12 677.79,-352.12 677.79,-352.12 719.96,-352.12 719.96,-352.12 722.92,-352.12 725.88,-355.08 725.88,-358.04 725.88,-358.04 725.88,-363.96 725.88,-363.96 725.88,-366.92 722.92,-369.88 719.96,-369.88"/>
<text xml:space="preserve" text-anchor="start" x="680.88" y="-357.32" font-family="Helvetica,sans-Serif" font-size="9.00">tokens.ts</text>
</a>
</g>
</g>
<!-- src/main/application/use&#45;cases/chat&#45;completions/stream&#45;chat&#45;completions.use&#45;case.ts&#45;&gt;src/main/application/ports/tokens.ts -->
<g id="edge11" class="edge">
<title>src/main/application/use&#45;cases/chat&#45;completions/stream&#45;chat&#45;completions.use&#45;case.ts&#45;&gt;src/main/application/ports/tokens.ts</title>
<path fill="none" stroke="#000000" stroke-width="2" stroke-opacity="0.200000" d="M585.94,-279.26C592.16,-281.94 597.96,-285.45 603,-290 613.56,-299.53 601.88,-310.08 611,-321 624.26,-336.88 645.2,-346.78 663.19,-352.75"/>
<polygon fill="#000000" fill-opacity="0.200000" stroke="#000000" stroke-width="2" stroke-opacity="0.200000" points="662.5,-354.74 668.85,-354.49 663.73,-350.72 662.5,-354.74"/>
</g>
<!-- src/main/infrastructure/config/settings/secrets.config.ts -->
<g id="node7" class="node">
<title>src/main/infrastructure/config/settings/secrets.config.ts</title>
<g id="a_node7"><a xlink:href="src/main/infrastructure/config/settings/secrets.config.ts" xlink:title="secrets.config.ts">
<path fill="#ddfeff" stroke="black" d="M733.58,-65.88C733.58,-65.88 664.17,-65.88 664.17,-65.88 661.21,-65.88 658.25,-62.92 658.25,-59.96 658.25,-59.96 658.25,-54.04 658.25,-54.04 658.25,-51.08 661.21,-48.12 664.17,-48.12 664.17,-48.12 733.58,-48.12 733.58,-48.12 736.54,-48.12 739.5,-51.08 739.5,-54.04 739.5,-54.04 739.5,-59.96 739.5,-59.96 739.5,-62.92 736.54,-65.88 733.58,-65.88"/>
<text xml:space="preserve" text-anchor="start" x="666.25" y="-53.33" font-family="Helvetica,sans-Serif" font-size="9.00">secrets.config.ts</text>
</a>
</g>
</g>
<!-- src/main/infrastructure/config/service.config.ts&#45;&gt;src/main/infrastructure/config/settings/secrets.config.ts -->
<g id="edge12" class="edge">
<title>src/main/infrastructure/config/service.config.ts&#45;&gt;src/main/infrastructure/config/settings/secrets.config.ts</title>
<path fill="none" stroke="#000000" stroke-width="2" stroke-opacity="0.200000" d="M543.6,-66.54C574.1,-64.66 616.37,-62.04 648.95,-60.03"/>
<polygon fill="#000000" fill-opacity="0.200000" stroke="#000000" stroke-width="2" stroke-opacity="0.200000" points="648.99,-62.13 654.85,-59.66 648.73,-57.94 648.99,-62.13"/>
</g>
<!-- src/main/infrastructure/config/settings/settings.config.ts -->
<g id="node8" class="node">
<title>src/main/infrastructure/config/settings/settings.config.ts</title>
<g id="a_node8"><a xlink:href="src/main/infrastructure/config/settings/settings.config.ts" xlink:title="settings.config.ts">
<path fill="#ddfeff" stroke="black" d="M734.71,-95.88C734.71,-95.88 663.04,-95.88 663.04,-95.88 660.08,-95.88 657.12,-92.92 657.12,-89.96 657.12,-89.96 657.12,-84.04 657.12,-84.04 657.12,-81.08 660.08,-78.12 663.04,-78.12 663.04,-78.12 734.71,-78.12 734.71,-78.12 737.67,-78.12 740.62,-81.08 740.62,-84.04 740.62,-84.04 740.62,-89.96 740.62,-89.96 740.62,-92.92 737.67,-95.88 734.71,-95.88"/>
<text xml:space="preserve" text-anchor="start" x="665.12" y="-83.33" font-family="Helvetica,sans-Serif" font-size="9.00">settings.config.ts</text>
</a>
</g>
</g>
<!-- src/main/infrastructure/config/service.config.ts&#45;&gt;src/main/infrastructure/config/settings/settings.config.ts -->
<g id="edge13" class="edge">
<title>src/main/infrastructure/config/service.config.ts&#45;&gt;src/main/infrastructure/config/settings/settings.config.ts</title>
<path fill="none" stroke="#000000" stroke-width="2" stroke-opacity="0.200000" d="M543.6,-72.69C573.8,-75.49 615.53,-79.36 647.98,-82.37"/>
<polygon fill="#000000" fill-opacity="0.200000" stroke="#000000" stroke-width="2" stroke-opacity="0.200000" points="647.68,-84.45 653.85,-82.92 648.07,-80.27 647.68,-84.45"/>
</g>
<!-- src/main/adapters/outbound/http/fetch&#45;llm&#45;chat&#45;completions.adapter.ts -->
<g id="node4" class="node">
<title>src/main/adapters/outbound/http/fetch&#45;llm&#45;chat&#45;completions.adapter.ts</title>
<g id="a_node4"><a xlink:href="src/main/adapters/outbound/http/fetch-llm-chat-completions.adapter.ts" xlink:title="fetch&#45;llm&#45;chat&#45;completions.adapter.ts">
<path fill="#ddfeff" stroke="black" d="M356.83,-89.88C356.83,-89.88 202.67,-89.88 202.67,-89.88 199.71,-89.88 196.75,-86.92 196.75,-83.96 196.75,-83.96 196.75,-78.04 196.75,-78.04 196.75,-75.08 199.71,-72.12 202.67,-72.12 202.67,-72.12 356.83,-72.12 356.83,-72.12 359.79,-72.12 362.75,-75.08 362.75,-78.04 362.75,-78.04 362.75,-83.96 362.75,-83.96 362.75,-86.92 359.79,-89.88 356.83,-89.88"/>
<text xml:space="preserve" text-anchor="start" x="204.75" y="-77.33" font-family="Helvetica,sans-Serif" font-size="9.00">fetch&#45;llm&#45;chat&#45;completions.adapter.ts</text>
</a>
</g>
</g>
<!-- src/main/adapters/outbound/http/fetch&#45;llm&#45;chat&#45;completions.adapter.ts&#45;&gt;src/main/infrastructure/config/service.config.ts -->
<g id="edge3" class="edge">
<title>src/main/adapters/outbound/http/fetch&#45;llm&#45;chat&#45;completions.adapter.ts&#45;&gt;src/main/infrastructure/config/service.config.ts</title>
<path fill="none" stroke="#000000" stroke-width="2" stroke-opacity="0.200000" d="M363.09,-76.53C393.43,-74.89 426.8,-73.07 453.22,-71.64"/>
<polygon fill="#000000" fill-opacity="0.200000" stroke="#000000" stroke-width="2" stroke-opacity="0.200000" points="453,-73.76 458.88,-71.33 452.77,-69.56 453,-73.76"/>
</g>
<!-- src/main/app.module.ts -->
<g id="node5" class="node">
<title>src/main/app.module.ts</title>
<g id="a_node5"><a xlink:href="src/main/app.module.ts" xlink:title="app.module.ts">
<path fill="#ddfeff" stroke="black" d="M158.83,-231.88C158.83,-231.88 96.92,-231.88 96.92,-231.88 93.96,-231.88 91,-228.92 91,-225.96 91,-225.96 91,-220.04 91,-220.04 91,-217.08 93.96,-214.12 96.92,-214.12 96.92,-214.12 158.83,-214.12 158.83,-214.12 161.79,-214.12 164.75,-217.08 164.75,-220.04 164.75,-220.04 164.75,-225.96 164.75,-225.96 164.75,-228.92 161.79,-231.88 158.83,-231.88"/>
<text xml:space="preserve" text-anchor="start" x="99" y="-219.32" font-family="Helvetica,sans-Serif" font-size="9.00">app.module.ts</text>
</a>
</g>
</g>
<!-- src/main/app.module.ts&#45;&gt;src/main/adapters/inbound/http/chat&#45;completions.controller.ts -->
<g id="edge4" class="edge">
<title>src/main/app.module.ts&#45;&gt;src/main/adapters/inbound/http/chat&#45;completions.controller.ts</title>
<path fill="none" stroke="#000000" stroke-width="2" stroke-opacity="0.200000" d="M137.31,-213.85C145.51,-205.6 158.74,-193.89 172.75,-188 182.23,-184.02 192.58,-181.15 202.98,-179.1"/>
<polygon fill="#000000" fill-opacity="0.200000" stroke="#000000" stroke-width="2" stroke-opacity="0.200000" points="203.18,-181.2 208.72,-178.09 202.45,-177.06 203.18,-181.2"/>
</g>
<!-- src/main/app.module.ts&#45;&gt;src/main/application/use&#45;cases/chat&#45;completions/stream&#45;chat&#45;completions.use&#45;case.ts -->
<g id="edge7" class="edge">
<title>src/main/app.module.ts&#45;&gt;src/main/application/use&#45;cases/chat&#45;completions/stream&#45;chat&#45;completions.use&#45;case.ts</title>
<path fill="none" stroke="#000000" stroke-width="2" stroke-opacity="0.200000" d="M131.69,-231.91C136.98,-246.91 149.95,-276.78 172.75,-289 256.58,-333.93 291.81,-294.75 386.75,-289 399.94,-288.2 413.93,-286.89 427.45,-285.39"/>
<polygon fill="#000000" fill-opacity="0.200000" stroke="#000000" stroke-width="2" stroke-opacity="0.200000" points="427.52,-287.49 433.24,-284.72 427.04,-283.32 427.52,-287.49"/>
</g>
<!-- src/main/app.module.ts&#45;&gt;src/main/infrastructure/config/service.config.ts -->
<g id="edge8" class="edge">
<title>src/main/app.module.ts&#45;&gt;src/main/infrastructure/config/service.config.ts</title>
<path fill="none" stroke="#000000" stroke-width="2" stroke-opacity="0.200000" d="M129.92,-213.77C133.7,-182.31 147.76,-80.12 172.75,-61 215.4,-28.37 372.76,-47.95 453.45,-60.68"/>
<polygon fill="#000000" fill-opacity="0.200000" stroke="#000000" stroke-width="2" stroke-opacity="0.200000" points="452.71,-62.68 458.97,-61.56 453.38,-58.54 452.71,-62.68"/>
</g>
<!-- src/main/app.module.ts&#45;&gt;src/main/adapters/outbound/http/fetch&#45;llm&#45;chat&#45;completions.adapter.ts -->
<g id="edge5" class="edge">
<title>src/main/app.module.ts&#45;&gt;src/main/adapters/outbound/http/fetch&#45;llm&#45;chat&#45;completions.adapter.ts</title>
<path fill="none" stroke="#000000" stroke-width="2" stroke-opacity="0.200000" d="M133.3,-213.85C140.31,-200.01 155,-173.41 172.75,-155 197,-129.85 230.94,-107.93 253.83,-94.61"/>
<polygon fill="#000000" fill-opacity="0.200000" stroke="#000000" stroke-width="2" stroke-opacity="0.200000" points="254.64,-96.56 258.81,-91.76 252.55,-92.92 254.64,-96.56"/>
</g>
<!-- src/main/app.module.ts&#45;&gt;src/main/application/ports/tokens.ts -->
<g id="edge6" class="edge">
<title>src/main/app.module.ts&#45;&gt;src/main/application/ports/tokens.ts</title>
<path fill="none" stroke="#000000" stroke-width="2" stroke-opacity="0.200000" d="M131.06,-232.29C135.61,-249.47 147.83,-286.06 172.75,-304 325.81,-414.23 571.91,-384.13 662.73,-368.03"/>
<polygon fill="#000000" fill-opacity="0.200000" stroke="#000000" stroke-width="2" stroke-opacity="0.200000" points="663.03,-370.12 668.55,-366.97 662.27,-365.98 663.03,-370.12"/>
</g>
<!-- src/main/app.module.ts&#45;&gt;src/main/infrastructure/config/settings/secrets.config.ts -->
<g id="edge9" class="edge">
<title>src/main/app.module.ts&#45;&gt;src/main/infrastructure/config/settings/secrets.config.ts</title>
<path fill="none" stroke="#000000" stroke-width="2" stroke-opacity="0.200000" d="M165.07,-223.41C273.2,-224.45 587.34,-226.16 603,-211 625.23,-189.48 590.4,-95.08 611,-72 620.62,-61.22 634.96,-56.35 649.23,-54.5"/>
<polygon fill="#000000" fill-opacity="0.200000" stroke="#000000" stroke-width="2" stroke-opacity="0.200000" points="649.26,-56.6 655.05,-53.98 648.89,-52.42 649.26,-56.6"/>
</g>
<!-- src/main/app.module.ts&#45;&gt;src/main/infrastructure/config/settings/settings.config.ts -->
<g id="edge10" class="edge">
<title>src/main/app.module.ts&#45;&gt;src/main/infrastructure/config/settings/settings.config.ts</title>
<path fill="none" stroke="#000000" stroke-width="2" stroke-opacity="0.200000" d="M133.3,-232.07C139.92,-244.46 153.68,-266.14 172.75,-275 194.31,-285.02 367.06,-288.33 386.75,-275 394.68,-269.63 387.25,-260.96 394.75,-255 468.07,-196.75 539.71,-292.01 603,-223 621.21,-203.14 592.97,-122.03 611,-102 620.41,-91.54 634.27,-86.66 648.16,-84.7"/>
<polygon fill="#000000" fill-opacity="0.200000" stroke="#000000" stroke-width="2" stroke-opacity="0.200000" points="648,-86.83 653.76,-84.14 647.58,-82.65 648,-86.83"/>
</g>
<!-- src/main/infrastructure/config/settings/secrets&#45;settings.schema.ts -->
<g id="node13" class="node">
<title>src/main/infrastructure/config/settings/secrets&#45;settings.schema.ts</title>
<g id="a_node13"><a xlink:href="src/main/infrastructure/config/settings/secrets-settings.schema.ts" xlink:title="secrets&#45;settings.schema.ts">
<path fill="#ddfeff" stroke="black" d="M930.96,-65.88C930.96,-65.88 819.54,-65.88 819.54,-65.88 816.58,-65.88 813.62,-62.92 813.62,-59.96 813.62,-59.96 813.62,-54.04 813.62,-54.04 813.62,-51.08 816.58,-48.12 819.54,-48.12 819.54,-48.12 930.96,-48.12 930.96,-48.12 933.92,-48.12 936.88,-51.08 936.88,-54.04 936.88,-54.04 936.88,-59.96 936.88,-59.96 936.88,-62.92 933.92,-65.88 930.96,-65.88"/>
<text xml:space="preserve" text-anchor="start" x="821.62" y="-53.33" font-family="Helvetica,sans-Serif" font-size="9.00">secrets&#45;settings.schema.ts</text>
</a>
</g>
</g>
<!-- src/main/infrastructure/config/settings/secrets.config.ts&#45;&gt;src/main/infrastructure/config/settings/secrets&#45;settings.schema.ts -->
<g id="edge14" class="edge">
<title>src/main/infrastructure/config/settings/secrets.config.ts&#45;&gt;src/main/infrastructure/config/settings/secrets&#45;settings.schema.ts</title>
<path fill="none" stroke="#000000" stroke-width="2" stroke-opacity="0.200000" d="M739.88,-57C758.97,-57 782.38,-57 804.27,-57"/>
<polygon fill="#000000" fill-opacity="0.200000" stroke="#000000" stroke-width="2" stroke-opacity="0.200000" points="804.2,-59.1 810.2,-57 804.2,-54.9 804.2,-59.1"/>
</g>
<!-- src/main/infrastructure/config/settings/environment&#45;settings.schema.ts -->
<g id="node11" class="node">
<title>src/main/infrastructure/config/settings/environment&#45;settings.schema.ts</title>
<g id="a_node11"><a xlink:href="src/main/infrastructure/config/settings/environment-settings.schema.ts" xlink:title="environment&#45;settings.schema.ts">
<path fill="#ddfeff" stroke="black" d="M941.83,-95.88C941.83,-95.88 808.67,-95.88 808.67,-95.88 805.71,-95.88 802.75,-92.92 802.75,-89.96 802.75,-89.96 802.75,-84.04 802.75,-84.04 802.75,-81.08 805.71,-78.12 808.67,-78.12 808.67,-78.12 941.83,-78.12 941.83,-78.12 944.79,-78.12 947.75,-81.08 947.75,-84.04 947.75,-84.04 947.75,-89.96 947.75,-89.96 947.75,-92.92 944.79,-95.88 941.83,-95.88"/>
<text xml:space="preserve" text-anchor="start" x="810.75" y="-83.33" font-family="Helvetica,sans-Serif" font-size="9.00">environment&#45;settings.schema.ts</text>
</a>
</g>
</g>
<!-- src/main/infrastructure/config/settings/settings.config.ts&#45;&gt;src/main/infrastructure/config/settings/environment&#45;settings.schema.ts -->
<g id="edge15" class="edge">
<title>src/main/infrastructure/config/settings/settings.config.ts&#45;&gt;src/main/infrastructure/config/settings/environment&#45;settings.schema.ts</title>
<path fill="none" stroke="#000000" stroke-width="2" stroke-opacity="0.200000" d="M740.76,-87C756.59,-87 775.29,-87 793.6,-87"/>
<polygon fill="#000000" fill-opacity="0.200000" stroke="#000000" stroke-width="2" stroke-opacity="0.200000" points="793.52,-89.1 799.52,-87 793.52,-84.9 793.52,-89.1"/>
</g>
<!-- src/main/application/ports/outbound/chat/llm&#45;chat&#45;completions.port.ts -->
<g id="node9" class="node">
<title>src/main/application/ports/outbound/chat/llm&#45;chat&#45;completions.port.ts</title>
<g id="a_node9"><a xlink:href="src/main/application/ports/outbound/chat/llm-chat-completions.port.ts" xlink:title="llm&#45;chat&#45;completions.port.ts">
<path fill="#ccffcc" stroke="black" d="M756.83,-291.88C756.83,-291.88 640.92,-291.88 640.92,-291.88 637.96,-291.88 635,-288.92 635,-285.96 635,-285.96 635,-280.04 635,-280.04 635,-277.08 637.96,-274.12 640.92,-274.12 640.92,-274.12 756.83,-274.12 756.83,-274.12 759.79,-274.12 762.75,-277.08 762.75,-280.04 762.75,-280.04 762.75,-285.96 762.75,-285.96 762.75,-288.92 759.79,-291.88 756.83,-291.88"/>
<text xml:space="preserve" text-anchor="start" x="643" y="-279.32" font-family="Helvetica,sans-Serif" font-size="9.00">llm&#45;chat&#45;completions.port.ts</text>
</a>
</g>
</g>
<!-- src/main/application/use&#45;cases/chat&#45;completions/stream&#45;chat&#45;completions.command.ts -->
<g id="node10" class="node">
<title>src/main/application/use&#45;cases/chat&#45;completions/stream&#45;chat&#45;completions.command.ts</title>
<g id="a_node10"><a xlink:href="src/main/application/use-cases/chat-completions/stream-chat-completions.command.ts" xlink:title="stream&#45;chat&#45;completions.command.ts">
<path fill="#ccffcc" stroke="black" d="M581.08,-313.88C581.08,-313.88 424.67,-313.88 424.67,-313.88 421.71,-313.88 418.75,-310.92 418.75,-307.96 418.75,-307.96 418.75,-302.04 418.75,-302.04 418.75,-299.08 421.71,-296.12 424.67,-296.12 424.67,-296.12 581.08,-296.12 581.08,-296.12 584.04,-296.12 587,-299.08 587,-302.04 587,-302.04 587,-307.96 587,-307.96 587,-310.92 584.04,-313.88 581.08,-313.88"/>
<text xml:space="preserve" text-anchor="start" x="426.75" y="-301.32" font-family="Helvetica,sans-Serif" font-size="9.00">stream&#45;chat&#45;completions.command.ts</text>
</a>
</g>
</g>
<!-- src/main/infrastructure/config/settings/environment&#45;settings.type.ts -->
<g id="node12" class="node">
<title>src/main/infrastructure/config/settings/environment&#45;settings.type.ts</title>
<g id="a_node12"><a xlink:href="src/main/infrastructure/config/settings/environment-settings.type.ts" xlink:title="environment&#45;settings.type.ts">
<path fill="#ccffcc" stroke="black" d="M757.96,-125.88C757.96,-125.88 639.79,-125.88 639.79,-125.88 636.83,-125.88 633.88,-122.92 633.88,-119.96 633.88,-119.96 633.88,-114.04 633.88,-114.04 633.88,-111.08 636.83,-108.12 639.79,-108.12 639.79,-108.12 757.96,-108.12 757.96,-108.12 760.92,-108.12 763.88,-111.08 763.88,-114.04 763.88,-114.04 763.88,-119.96 763.88,-119.96 763.88,-122.92 760.92,-125.88 757.96,-125.88"/>
<text xml:space="preserve" text-anchor="start" x="641.88" y="-113.33" font-family="Helvetica,sans-Serif" font-size="9.00">environment&#45;settings.type.ts</text>
</a>
</g>
</g>
<!-- src/main/infrastructure/config/settings/secrets&#45;settings.type.ts -->
<g id="node14" class="node">
<title>src/main/infrastructure/config/settings/secrets&#45;settings.type.ts</title>
<g id="a_node14"><a xlink:href="src/main/infrastructure/config/settings/secrets-settings.type.ts" xlink:title="secrets&#45;settings.type.ts">
<path fill="#ccffcc" stroke="black" d="M747.08,-155.88C747.08,-155.88 650.67,-155.88 650.67,-155.88 647.71,-155.88 644.75,-152.92 644.75,-149.96 644.75,-149.96 644.75,-144.04 644.75,-144.04 644.75,-141.08 647.71,-138.12 650.67,-138.12 650.67,-138.12 747.08,-138.12 747.08,-138.12 750.04,-138.12 753,-141.08 753,-144.04 753,-144.04 753,-149.96 753,-149.96 753,-152.92 750.04,-155.88 747.08,-155.88"/>
<text xml:space="preserve" text-anchor="start" x="652.75" y="-143.32" font-family="Helvetica,sans-Serif" font-size="9.00">secrets&#45;settings.type.ts</text>
</a>
</g>
</g>
<!-- src/main/main.ts -->
<g id="node15" class="node">
<title>src/main/main.ts</title>
<g id="a_node15"><a xlink:href="src/main/main.ts" xlink:title="main.ts">
<path fill="#ddfeff" stroke="black" d="M72.08,-112.88C72.08,-112.88 29.92,-112.88 29.92,-112.88 26.96,-112.88 24,-109.92 24,-106.96 24,-106.96 24,-101.04 24,-101.04 24,-98.08 26.96,-95.12 29.92,-95.12 29.92,-95.12 72.08,-95.12 72.08,-95.12 75.04,-95.12 78,-98.08 78,-101.04 78,-101.04 78,-106.96 78,-106.96 78,-109.92 75.04,-112.88 72.08,-112.88"/>
<text xml:space="preserve" text-anchor="start" x="36.38" y="-100.33" font-family="Helvetica,sans-Serif" font-size="9.00">main.ts</text>
</a>
</g>
</g>
<!-- src/main/main.ts&#45;&gt;src/main/infrastructure/config/service.config.ts -->
<g id="edge17" class="edge">
<title>src/main/main.ts&#45;&gt;src/main/infrastructure/config/service.config.ts</title>
<path fill="none" stroke="#000000" stroke-width="2" stroke-opacity="0.200000" d="M64.54,-94.65C85.59,-79.61 129.92,-50.65 172.75,-40 265.05,-17.05 292.36,-28.29 386.75,-40 413.29,-43.29 442.51,-50.7 464.87,-57.2"/>
<polygon fill="#000000" fill-opacity="0.200000" stroke="#000000" stroke-width="2" stroke-opacity="0.200000" points="464.14,-59.18 470.49,-58.87 465.33,-55.15 464.14,-59.18"/>
</g>
<!-- src/main/main.ts&#45;&gt;src/main/app.module.ts -->
<g id="edge16" class="edge">
<title>src/main/main.ts&#45;&gt;src/main/app.module.ts</title>
<path fill="none" stroke="#000000" stroke-width="2" stroke-opacity="0.200000" d="M57.88,-113.34C70.51,-133.41 100.39,-180.9 116.37,-206.3"/>
<polygon fill="#000000" fill-opacity="0.200000" stroke="#000000" stroke-width="2" stroke-opacity="0.200000" points="114.44,-207.18 119.41,-211.14 118,-204.95 114.44,-207.18"/>
</g>
</g>
</svg>
